<?xml version="1.0" standalone="no"?><!DOCTYPE svg PUBLIC "-//W3C//DTD SVG 1.1//EN" "http://www.w3.org/Graphics/SVG/1.1/DTD/svg11.dtd"><svg t="1550646210727" class="icon" style="" viewBox="0 0 1024 1024" version="1.1" xmlns="http://www.w3.org/2000/svg" p-id="2297" data-spm-anchor-id="a313x.7781069.0.i0" xmlns:xlink="http://www.w3.org/1999/xlink" width="200" height="200"><defs><style type="text/css"></style></defs><path d="M273.825 64.73h473.893c25.307 0 48.442 9.998 65.256 26.062 17.101 16.387 27.706 39.067 27.706 64.056V930.54c0 16.502-13.413 29.854-29.992 29.854-6.383 0-12.363-2.04-17.282-5.483l-265.12-157.558c-5.445-3.263-11.51-4.894-17.545-4.894a33.975 33.975 0 0 0-17.545 4.894L226.205 956.022c-14.15 8.457-32.541 3.85-41.005-10.263a29.34 29.34 0 0 1-4.217-15.278h-0.12V154.848c0-24.99 10.63-47.669 27.737-64.056 16.783-16.064 39.918-26.063 65.225-26.063z m473.893 59.712H273.825c-9.345 0-17.778 3.557-23.723 9.304-5.68 5.416-9.256 12.914-9.256 21.103v723.153l221.627-131.723c15.116-9.04 31.72-13.532 48.268-13.532 16.52 0 33.129 4.492 48.239 13.532L780.697 878.06V154.848c0-8.188-3.576-15.686-9.196-21.103-6.034-5.746-14.414-9.303-23.783-9.303z" fill="#1296db" p-id="2298" data-spm-anchor-id="a313x.7781069.0.i1" class=""></path><path d="M358.324 304.213c-15.17 0-27.473-13.677-27.473-30.496s12.302-30.472 27.473-30.472h304.925c15.17 0 27.472 13.652 27.472 30.472s-12.302 30.496-27.472 30.496H358.324z" fill="#1296db" p-id="2299" data-spm-anchor-id="a313x.7781069.0.i2" class=""></path></svg>